<svg xmlns="http://www.w3.org/2000/svg" viewBox="0 0 2000 1500" role="img" aria-label="T1: Главный въездной стенд деревни Святогорово">
  <title>T1 — Главный въездной стенд «Тропа Сергия Радонежского»</title>
  <desc>Точка входа в маршрут. Устанавливается у въезда в деревню или у ближайшей парковки. Размер реального знака — 2000×1500 мм. Слева — схема маршрута, справа — реестр объектов с пиктограммами и контакты.</desc>

  <defs>
    <!-- Pictograms (inlined for self-contained file) -->
    <g id="pict-cross">
      <g transform="translate(0 6.97772) scale(3.83675)">
    <g transform="translate(-161.362693,437.000000) scale(0.100000,-0.100000)" fill="#fff">
      <path d="M4090 4344 c6 -16 10 -491 10 -1285 l0 -1259 60 0 60 0 0 1263 c0
694 -3 1272 -6 1285 -6 20 -12 22 -70 22 l-64 0 10 -26z"/>
<path d="M2148 4134 c-37 -19 -58 -63 -58 -119 l0 -45 -65 0 c-75 0 -105 -20
-105 -70 0 -50 30 -70 105 -70 l65 0 0 -40 0 -40 -204 0 c-113 0 -216 -4 -229
-9 -13 -5 -29 -23 -36 -39 -10 -25 -10 -35 3 -60 8 -16 26 -32 38 -36 13 -3
114 -6 226 -6 l202 0 0 -236 c0 -220 -1 -236 -17 -231 -10 3 -53 18 -95 33
l-77 29 -28 -21 c-32 -24 -41 -65 -20 -97 9 -14 55 -38 125 -65 l111 -43 5
-252 c3 -139 8 -280 11 -313 l7 -62 -49 -16 c-112 -37 -206 -122 -260 -234
-31 -64 -36 -85 -37 -151 l-1 -76 438 -3 437 -2 0 52 c-1 181 -128 356 -302
414 l-50 16 7 62 c3 33 9 154 13 268 l7 207 73 -30 c90 -36 135 -38 156 -7 23
33 20 73 -8 95 -13 11 -69 37 -125 59 l-101 39 0 282 0 282 220 3 c192 3 221
5 237 20 26 26 22 86 -6 109 -21 17 -43 19 -237 19 l-214 0 0 40 0 40 63 0
c79 0 107 17 107 66 0 55 -27 74 -105 74 l-65 0 0 45 c0 104 -81 163 -162 119z"/>
    </g>
  </g>
    </g>

    <g id="pict-church">
      <g transform="translate(0 172.024) scale(2.55234)">
    <g transform="translate(-31.202520,437.000095) scale(0.100000,-0.100000)" fill="#fff">
      <path d="M4104 4348 c3 -13 6 -591 6 -1285 l0 -1263 60 0 60 0 0 1269 c0 698
-3 1276 -6 1285 -5 12 -21 16 -66 16 -58 0 -60 -1 -54 -22z"/>
<path d="M2239 4153 c-1 -4 -2 -21 -3 -38 -1 -27 -4 -30 -28 -27 -20 2 -28 -2
-28 -13 0 -11 8 -15 28 -13 23 3 27 -1 30 -25 2 -17 -4 -37 -14 -48 -15 -17
-16 -24 -6 -39 34 -54 -5 -145 -108 -254 -74 -78 -94 -113 -84 -152 8 -32 81
-94 111 -94 22 0 24 -3 21 -47 l-3 -47 -333 -211 -333 -210 73 -5 73 -5 0
-123 0 -124 -228 -121 -227 -122 85 -3 85 -3 0 -259 0 -260 895 0 895 0 0 260
0 260 88 0 87 0 -30 18 c-16 10 -88 49 -160 86 -71 38 -163 87 -203 108 l-73
40 3 122 3 121 74 5 74 5 -334 211 -334 211 -3 47 c-3 44 -2 46 24 46 18 0 40
14 70 44 66 66 61 88 -47 204 -101 108 -140 199 -107 252 10 15 9 22 -6 39
-10 11 -16 31 -14 48 3 24 7 28 31 25 19 -2 27 2 27 13 0 10 -7 16 -17 14 -40
-4 -45 0 -38 30 3 17 2 32 -4 36 -6 3 -12 3 -12 -2z m34 -1034 c28 -13 47 -48
47 -84 0 -22 4 -25 40 -25 29 0 42 -5 50 -20 18 -34 -4 -60 -50 -60 -36 0 -40
-3 -40 -25 l0 -25 121 0 c130 0 159 -8 159 -43 0 -42 -17 -47 -152 -47 l-128
0 0 -173 0 -173 58 -24 c72 -29 82 -37 82 -65 0 -42 -24 -50 -85 -27 l-55 21
0 -114 c0 -127 -9 -158 -52 -176 -25 -10 -33 -9 -56 8 -27 20 -27 21 -32 179
l-5 158 -60 26 c-80 34 -85 37 -85 65 0 40 31 48 90 26 38 -15 52 -16 56 -7 3
7 3 70 2 142 l-3 129 -129 3 c-75 1 -135 7 -143 14 -19 16 -16 56 6 68 11 5
77 10 146 10 125 0 126 0 123 23 -2 18 -10 23 -45 25 -81 6 -81 78 0 84 41 3
42 4 45 40 2 26 11 44 29 58 30 23 34 24 66 9z"/>
    </g>
  </g>
    </g>

    <g id="pict-view">
      <g transform="translate(5.68434e-14 96.028) scale(3.14375)">
    <g transform="translate(-102.908620,437.000000) scale(0.100000,-0.100000)" fill="#fff">
      <path d="M4080 4344 c6 -16 10 -491 10 -1285 l0 -1259 60 0 60 0 0 1269 c0
698 -3 1276 -6 1285 -5 12 -21 16 -70 16 l-64 0 10 -26z"/>
<path d="M1629 4166 c-271 -75 -393 -393 -238 -621 43 -65 99 -113 168 -147
53 -27 78 -33 150 -36 167 -8 303 66 384 210 37 65 50 127 45 220 -8 177 -116
315 -289 369 -69 22 -152 23 -220 5z"/>
<path d="M2443 3969 c-23 -11 -49 -31 -58 -45 -13 -20 -23 -24 -70 -24 -71 0
-109 -30 -109 -84 0 -50 30 -79 91 -86 l48 -5 3 -257 2 -258 -199 0 c-190 0
-200 1 -242 24 -24 13 -68 29 -97 36 -155 36 -331 -61 -394 -218 l-23 -57 0
-555 0 -555 348 -3 347 -2 0 490 0 490 240 0 c188 0 247 3 268 14 41 21 81 68
92 107 6 19 10 181 10 371 l0 338 28 0 c15 0 117 -7 227 -15 110 -8 228 -15
262 -15 l61 0 13 38 c7 20 13 73 13 117 0 44 -6 97 -13 118 -15 45 9 43 -364
21 l-268 -16 -49 26 c-58 32 -110 33 -167 5z"/>
<path d="M1032 2443 l3 -68 32 -3 33 -3 2 -242 3 -242 68 -3 67 -3 0 316 0
315 -105 0 -106 0 3 -67z"/>
<path d="M2242 2198 l3 -313 68 -3 67 -3 0 246 0 245 85 0 85 0 2 -242 3 -243
68 -3 67 -3 0 246 0 245 85 0 85 0 0 -245 0 -245 70 0 70 0 0 245 0 245 85 0
85 0 0 -245 0 -246 68 3 67 3 3 243 2 242 30 0 30 0 0 70 0 70 -565 0 -565 0
2 -312z"/>
    </g>
  </g>
    </g>

    <g id="pict-inn">
      <g transform="translate(0 173.913) scale(2.55754)">
    <g transform="translate(-31.000000,434.000000) scale(0.100000,-0.100000)" fill="#fff">
      <path d="M4091 4308 c5 -20 9 -539 9 -1275 l0 -1243 60 0 60 0 0 1244 c0 684
-3 1258 -6 1275 -6 31 -7 31 -70 31 l-63 0 10 -32z"/>
<path d="M1825 4105 c-32 -31 -32 -67 1 -123 l26 -44 19 31 c30 50 55 41 74
-24 9 -30 21 -57 26 -60 5 -4 9 -12 9 -19 0 -8 -123 -85 -272 -172 -150 -87
-366 -212 -480 -277 -224 -130 -230 -136 -207 -206 13 -42 43 -77 82 -97 31
-16 -49 -60 856 466 134 78 252 140 260 137 9 -2 163 -89 341 -192 179 -104
418 -242 531 -308 l207 -119 30 16 c48 25 76 72 77 130 l0 50 -95 56 c-52 31
-268 157 -480 280 -212 122 -387 224 -389 226 -2 2 1 10 8 18 6 7 19 38 29 67
21 68 51 78 77 28 19 -35 20 -34 55 33 26 48 25 60 -6 97 -47 56 -127 41 -296
-55 l-97 -56 -96 57 c-113 66 -162 85 -222 85 -33 0 -50 -6 -68 -25z"/>
<path d="M1219 3003 c-11 -13 -15 -96 -17 -422 -4 -479 3 -685 25 -706 22 -23
69 -19 87 7 13 18 16 53 16 170 l0 148 338 -2 337 -3 3 -57 c5 -93 -26 -88
517 -88 258 0 475 4 481 8 21 14 34 51 34 96 0 44 1 46 30 46 l30 0 0 -153 c0
-136 2 -156 18 -170 24 -22 65 -21 85 1 15 17 17 70 17 564 0 515 -1 546 -18
561 -24 22 -65 21 -85 -1 -15 -16 -17 -55 -17 -335 l0 -317 -30 0 -30 0 0 223
c0 244 -5 269 -63 311 -28 20 -41 21 -498 24 l-469 3 0 -281 0 -280 -340 0
-340 0 0 313 c0 350 -1 357 -64 357 -19 0 -40 -7 -47 -17z"/>
<path d="M1532 2940 c-89 -54 -97 -175 -18 -250 21 -19 40 -25 91 -28 62 -4
64 -4 106 35 39 37 43 45 46 99 3 47 0 66 -16 92 -29 45 -77 72 -131 72 -27 0
-58 -8 -78 -20z"/>
<path d="M1839 2921 c-23 -19 -24 -25 -27 -184 l-3 -166 -189 -3 c-168 -3
-190 -5 -209 -22 -27 -24 -27 -70 -1 -96 19 -19 33 -20 255 -20 l236 0 24 25
c25 24 25 25 25 230 0 205 0 206 -25 230 -29 30 -55 32 -86 6z"/>
    </g>
  </g>
    </g>

    <g id="pict-tic">
      <g transform="translate(0 172.026) scale(2.55233)">
    <g transform="translate(-31.200678,437.000110) scale(0.100000,-0.100000)" fill="#fff">
      <path d="M4100 4344 c6 -16 10 -491 10 -1285 l0 -1259 60 0 60 0 0 1263 c0
694 -3 1272 -6 1285 -6 20 -12 22 -70 22 l-64 0 10 -26z"/>
<path d="M2043 4159 c-81 -10 -197 -43 -283 -80 -342 -145 -589 -438 -683
-808 -30 -118 -31 -396 -3 -515 77 -332 285 -605 589 -776 l57 -32 0 31 c0 26
-6 34 -42 52 -84 43 -164 104 -253 193 -128 129 -214 264 -268 426 -45 135
-52 186 -51 365 0 151 4 181 27 268 31 117 97 260 166 360 60 87 202 227 286
284 305 205 693 249 1030 116 281 -111 501 -323 621 -601 121 -280 119 -600
-5 -884 -91 -205 -258 -395 -448 -505 -71 -42 -82 -52 -83 -76 l0 -27 58 29
c305 155 540 479 603 831 18 103 16 305 -4 411 -110 558 -593 955 -1155 948
-53 -1 -125 -5 -159 -10z"/>
<path d="M2127 3910 c-81 -25 -140 -109 -140 -200 0 -119 87 -210 203 -210
134 0 232 128 200 261 -28 116 -147 184 -263 149z"/>
<path d="M2505 3783 c4 -16 7 -28 8 -29 1 -1 34 -18 73 -38 196 -102 348 -293
405 -511 41 -156 27 -356 -37 -507 -75 -178 -246 -356 -409 -424 -27 -11 -35
-20 -35 -39 0 -32 7 -32 88 9 217 109 379 310 443 551 30 114 30 308 0 420
-68 254 -249 469 -479 572 -66 29 -66 29 -57 -4z"/>
<path d="M1802 3756 c-474 -256 -590 -903 -234 -1311 76 -87 202 -180 298
-220 34 -14 34 -14 34 13 0 24 -10 32 -78 67 -99 51 -240 188 -301 292 -143
242 -148 548 -14 793 68 126 179 239 302 311 46 26 60 40 63 62 3 15 2 27 -1
27 -3 0 -34 -16 -69 -34z"/>
<path d="M2422 3480 c-11 -18 -8 -22 30 -41 23 -12 66 -44 95 -72 204 -192
212 -496 20 -704 -53 -57 -73 -103 -45 -103 7 0 42 30 78 68 170 175 205 417
91 640 -30 59 -136 169 -196 203 -60 34 -57 34 -73 9z"/>
<path d="M1890 3446 c-140 -105 -220 -261 -220 -433 0 -160 49 -281 160 -392
l65 -66 3 33 c3 29 -4 42 -46 86 -58 61 -104 147 -122 227 -18 79 -8 209 20
282 31 82 104 174 178 225 51 36 61 47 51 58 -18 22 -40 17 -89 -20z"/>
<path d="M2255 3280 c-60 -16 -164 -39 -230 -50 -66 -12 -130 -24 -143 -26
-20 -4 -23 -10 -20 -46 3 -41 4 -42 51 -54 109 -28 107 -18 107 -541 0 -261
-4 -453 -10 -474 -14 -50 -39 -69 -109 -82 l-61 -12 0 -47 0 -48 370 0 370 0
0 48 0 47 -61 12 c-125 24 -119 -13 -119 703 0 565 -1 600 -17 599 -10 0 -67
-14 -128 -29z"/>
    </g>
  </g>
    </g>
  </defs>

  <!-- Stand background -->
  <rect width="2000" height="1500" rx="40" fill="#714A07"/>

  <!-- ─────────────── Top: Title bar ─────────────── -->
  <text x="60" y="120" fill="#fff"
        font-family="'Myriad Pro Condensed','PT Sans Narrow','Arial Narrow',sans-serif"
        font-weight="700" font-size="84" font-stretch="condensed">ТРОПА ПРЕПОДОБНОГО СЕРГИЯ РАДОНЕЖСКОГО</text>
  <text x="60" y="180" fill="#fff" opacity="0.85"
        font-family="'Myriad Pro Condensed','PT Sans Narrow','Arial Narrow',sans-serif"
        font-weight="400" font-size="48" font-stretch="condensed">SAINT SERGIUS OF RADONEZH PILGRIM TRAIL</text>

  <!-- TIC pictogram in top-right corner -->
  <g transform="translate(1820 30) scale(0.15)">
    <use href="#pict-tic"/>
  </g>

  <!-- Divider under title -->
  <line x1="60" y1="220" x2="1940" y2="220" stroke="#fff" stroke-width="3" opacity="0.6"/>

  <!-- ─────────────── Left half: Schematic map ─────────────── -->
  <g transform="translate(60 260)">
    <!-- Map label -->
    <text x="0" y="40" fill="#fff" opacity="0.7"
          font-family="'Myriad Pro Condensed','PT Sans Narrow','Arial Narrow',sans-serif"
          font-weight="400" font-size="28" font-stretch="condensed">СХЕМА МАРШРУТА · ROUTE MAP</text>

    <!-- Map background (light area) -->
    <rect x="0" y="60" width="900" height="850" fill="#fff" opacity="0.08" rx="12"/>

    <!-- North arrow -->
    <g transform="translate(820 110)">
      <circle r="32" fill="#fff" opacity="0.12"/>
      <path d="M 0 -22 L 12 12 L 0 5 L -12 12 Z" fill="#fff"/>
      <text y="-30" fill="#fff" font-family="sans-serif" font-size="16" font-weight="700" text-anchor="middle">С</text>
    </g>

    <!-- Trail dashed line (simulating actual route through points) -->
    <path d="M 80 760 Q 200 600 300 550 T 500 380 Q 600 320 720 240"
          fill="none" stroke="#fff" stroke-width="6" stroke-dasharray="14 10"/>

    <!-- Trail extension arrow toward Lavra (phase 2) -->
    <path d="M 720 240 L 800 180" fill="none" stroke="#fff" stroke-width="6" stroke-dasharray="14 10" opacity="0.4"/>
    <text x="730" y="170" fill="#fff" opacity="0.55"
          font-family="'Myriad Pro Condensed','PT Sans Narrow','Arial Narrow',sans-serif"
          font-size="20" font-style="italic">→ к Лавре · to Lavra</text>

    <!-- Trail start arrow back from Dmitrov (phase 2) -->
    <path d="M 80 760 L 10 800" fill="none" stroke="#fff" stroke-width="6" stroke-dasharray="14 10" opacity="0.4"/>
    <text x="20" y="855" fill="#fff" opacity="0.55"
          font-family="'Myriad Pro Condensed','PT Sans Narrow','Arial Narrow',sans-serif"
          font-size="20" font-style="italic">← из Дмитрова · from Dmitrov</text>

    <!-- Point 1: Start (entry) — circular marker -->
    <circle cx="80" cy="760" r="14" fill="#fff"/>
    <circle cx="80" cy="760" r="6" fill="#714A07"/>
    <text x="105" y="770" fill="#fff"
          font-family="'Myriad Pro Condensed','PT Sans Narrow','Arial Narrow',sans-serif"
          font-weight="700" font-size="22" font-stretch="condensed">ВЫ ЗДЕСЬ</text>

    <!-- Point 2: Guest house -->
    <circle cx="200" cy="650" r="12" fill="#fff"/>
    <text x="220" y="660" fill="#fff"
          font-family="'Myriad Pro Condensed','PT Sans Narrow','Arial Narrow',sans-serif"
          font-weight="700" font-size="20" font-stretch="condensed">Гостевой дом</text>

    <!-- Point 3: Chapel -->
    <circle cx="300" cy="550" r="12" fill="#fff"/>
    <text x="320" y="560" fill="#fff"
          font-family="'Myriad Pro Condensed','PT Sans Narrow','Arial Narrow',sans-serif"
          font-weight="700" font-size="20" font-stretch="condensed">Часовня свт. Николая</text>

    <!-- Point 4: Cross -->
    <circle cx="500" cy="380" r="14" fill="#fff"/>
    <circle cx="500" cy="380" r="6" fill="#714A07"/>
    <text x="520" y="390" fill="#fff"
          font-family="'Myriad Pro Condensed','PT Sans Narrow','Arial Narrow',sans-serif"
          font-weight="700" font-size="22" font-stretch="condensed">Поклонный крест</text>

    <!-- Point 5: View point -->
    <circle cx="720" cy="240" r="12" fill="#fff"/>
    <text x="555" y="225" fill="#fff"
          font-family="'Myriad Pro Condensed','PT Sans Narrow','Arial Narrow',sans-serif"
          font-weight="700" font-size="20" font-stretch="condensed">Смотровая площадка</text>
  </g>

  <!-- ─────────────── Right half: Objects list + contacts ─────────────── -->
  <g transform="translate(1020 260)">
    <text x="0" y="40" fill="#fff" opacity="0.7"
          font-family="'Myriad Pro Condensed','PT Sans Narrow','Arial Narrow',sans-serif"
          font-weight="400" font-size="28" font-stretch="condensed">ОБЪЕКТЫ НА МАРШРУТЕ · POINTS ON THE TRAIL</text>

    <!-- Row 1: Cross -->
    <g transform="translate(0 80)">
      <g transform="translate(0 0) scale(0.18)">
        <use href="#pict-cross"/>
      </g>
      <text x="220" y="60" fill="#fff"
            font-family="'Myriad Pro Condensed','PT Sans Narrow','Arial Narrow',sans-serif"
            font-weight="700" font-size="40" font-stretch="condensed">ПОКЛОННЫЙ КРЕСТ</text>
      <text x="220" y="100" fill="#fff" opacity="0.75"
            font-family="'Myriad Pro Condensed','PT Sans Narrow','Arial Narrow',sans-serif"
            font-weight="400" font-size="26" font-stretch="condensed">Holy Cross · 1,2 км</text>
      <text x="220" y="135" fill="#fff" opacity="0.65"
            font-family="'Myriad Pro Condensed','PT Sans Narrow','Arial Narrow',sans-serif"
            font-weight="400" font-size="20" font-stretch="condensed" font-style="italic">место молитвенной остановки</text>
    </g>

    <!-- Row 2: Chapel -->
    <g transform="translate(0 250)">
      <g transform="translate(0 0) scale(0.18)">
        <use href="#pict-church"/>
      </g>
      <text x="220" y="60" fill="#fff"
            font-family="'Myriad Pro Condensed','PT Sans Narrow','Arial Narrow',sans-serif"
            font-weight="700" font-size="40" font-stretch="condensed">ЧАСОВНЯ СВТ. НИКОЛАЯ</text>
      <text x="220" y="100" fill="#fff" opacity="0.75"
            font-family="'Myriad Pro Condensed','PT Sans Narrow','Arial Narrow',sans-serif"
            font-weight="400" font-size="26" font-stretch="condensed">Chapel of St Nicholas · 400 м</text>
      <text x="220" y="135" fill="#fff" opacity="0.65"
            font-family="'Myriad Pro Condensed','PT Sans Narrow','Arial Narrow',sans-serif"
            font-weight="400" font-size="20" font-stretch="condensed" font-style="italic">покровитель путников</text>
    </g>

    <!-- Row 3: Viewpoint -->
    <g transform="translate(0 420)">
      <g transform="translate(0 0) scale(0.18)">
        <use href="#pict-view"/>
      </g>
      <text x="220" y="60" fill="#fff"
            font-family="'Myriad Pro Condensed','PT Sans Narrow','Arial Narrow',sans-serif"
            font-weight="700" font-size="40" font-stretch="condensed">СМОТРОВАЯ ПЛОЩАДКА</text>
      <text x="220" y="100" fill="#fff" opacity="0.75"
            font-family="'Myriad Pro Condensed','PT Sans Narrow','Arial Narrow',sans-serif"
            font-weight="400" font-size="26" font-stretch="condensed">Viewpoint · 800 м</text>
      <text x="220" y="135" fill="#fff" opacity="0.65"
            font-family="'Myriad Pro Condensed','PT Sans Narrow','Arial Narrow',sans-serif"
            font-weight="400" font-size="20" font-stretch="condensed" font-style="italic">панорама долины</text>
    </g>

    <!-- Row 4: Guest house -->
    <g transform="translate(0 590)">
      <g transform="translate(0 0) scale(0.18)">
        <use href="#pict-inn"/>
      </g>
      <text x="220" y="60" fill="#fff"
            font-family="'Myriad Pro Condensed','PT Sans Narrow','Arial Narrow',sans-serif"
            font-weight="700" font-size="40" font-stretch="condensed">ГОСТЕВОЙ ДОМ</text>
      <text x="220" y="100" fill="#fff" opacity="0.75"
            font-family="'Myriad Pro Condensed','PT Sans Narrow','Arial Narrow',sans-serif"
            font-weight="400" font-size="26" font-stretch="condensed">Guest House · 250 м</text>
      <text x="220" y="135" fill="#fff" opacity="0.65"
            font-family="'Myriad Pro Condensed','PT Sans Narrow','Arial Narrow',sans-serif"
            font-weight="400" font-size="20" font-stretch="condensed" font-style="italic">размещение для паломников</text>
    </g>
  </g>

  <!-- ─────────────── Bottom strip: contacts + QR ─────────────── -->
  <line x1="60" y1="1290" x2="1940" y2="1290" stroke="#fff" stroke-width="2" opacity="0.5"/>

  <text x="60" y="1350" fill="#fff"
        font-family="'Myriad Pro Condensed','PT Sans Narrow','Arial Narrow',sans-serif"
        font-weight="700" font-size="32" font-stretch="condensed">Святогорово, Дмитровский городской округ, Московская область</text>
  <text x="60" y="1395" fill="#fff" opacity="0.85"
        font-family="'Myriad Pro Condensed','PT Sans Narrow','Arial Narrow',sans-serif"
        font-weight="400" font-size="26" font-stretch="condensed">+7 (926) 555-19-20 · igrastoria@mail.ru · святогорово.рф</text>
  <text x="60" y="1430" fill="#fff" opacity="0.6"
        font-family="'Myriad Pro Condensed','PT Sans Narrow','Arial Narrow',sans-serif"
        font-weight="400" font-size="20" font-stretch="condensed" font-style="italic">Воскресная школа «Преображение» Сретенского храма г. Дмитрова</text>

  <!-- Large QR (bottom right) — square placeholder to match the production QR -->
  <rect x="1740" y="1300" width="180" height="180" fill="#fff" rx="8"/>
  <g fill="#714A07">
    <rect x="1760" y="1320" width="40" height="40"/>
    <rect x="1880" y="1320" width="40" height="40"/>
    <rect x="1760" y="1440" width="40" height="40"/>
    <rect x="1820" y="1340" width="20" height="20"/>
    <rect x="1850" y="1380" width="20" height="20"/>
    <rect x="1810" y="1400" width="20" height="20"/>
    <rect x="1875" y="1420" width="20" height="20"/>
    <rect x="1840" y="1450" width="20" height="20"/>
    <rect x="1885" y="1455" width="15" height="15"/>
  </g>
  <text x="1840" y="1492" fill="#fff" opacity="0.6"
        font-family="sans-serif" font-size="14" text-anchor="middle">святогорово.рф</text>

  <!-- Draft label -->
  <text x="60" y="1485" fill="#fff" opacity="0.25" font-size="11" font-family="sans-serif">T1 · ENTRY STAND · DRAFT v0.1 · 2000×1500 mm</text>
</svg>
