<?xml version="1.0" encoding="UTF-8"?>
<!--
  T5 — Знак зоны отдыха
  Production-ready SVG.

  Physical size: 400 × 400 мм (16M × 16M @ M = 25 мм)
  Color:         Pantone 731 C  (RGB 113,74,7  ·  CMYK 34,65,100,43  ·  RAL 8008 Olivebrown)
  Typeface:      Myriad Pro Bold Condensed (заголовок) + Condensed (вспомог.)
  Pictograms:    Официальные, извлечены из Метод-пособия Минкультуры РФ (2013),
                 векторизованы potrace. Согласно ГОСТ Р 57581-2017.
  QR codes:      Сгенерированы автоматически на URL'ы лендинга:
                       · нет

  Импорт в Adobe Illustrator:
    File → Open (или Place). Артборд автоматически 400 × 400 мм.
    Все координаты внутри — в миллиметрах.

  Перед сдачей в печать:
    1. Type → Create Outlines  (все надписи в кривые).
    2. Проверить QR-коды сканером — должны открывать соответствующий якорь лендинга.
    3. Цвет: Pantone 731 C для офсета, CMYK 34/65/100/43 для цифровой.
-->
<svg width="400mm" height="400mm" xmlns="http://www.w3.org/2000/svg" viewBox="0 0 400 400" role="img" aria-label="T5: Знак зоны отдыха на тропе">
  <title>T5 — Знак зоны отдыха</title>
  <desc>Малый квадратный знак, ставится в обустроенной зоне отдыха на тропе. Размер реального знака — 400×400 мм. Пиктограмма #9 (Место отдыха) по Методичке стр. 24.</desc>

  <defs>
    <g id="pict-rest">
      <g transform="translate(-5.68434e-14 171.298) scale(2.55799)">
    <g transform="translate(-31.067808,437.000000) scale(0.100000,-0.100000)" fill="#fff">
      <path d="M311 4343 c0 -25 1 -26 9 -8 12 27 12 35 0 35 -5 0 -10 -12 -9 -27z"/>
<path d="M4094 4354 c3 -9 6 -587 6 -1285 l0 -1269 60 0 60 0 0 1285 0 1285
-66 0 c-56 0 -65 -2 -60 -16z"/>
<path d="M1524 4146 c-217 -101 -140 -427 100 -426 122 1 226 104 226 225 0
54 -21 106 -58 147 -71 79 -171 99 -268 54z"/>
<path d="M1555 3616 c-56 -26 -88 -70 -93 -128 -3 -48 4 -73 88 -278 50 -124
114 -281 142 -350 53 -133 89 -182 142 -199 28 -9 134 -16 556 -39 l124 -7 21
-38 c21 -36 21 -41 9 -150 -60 -528 -60 -522 -8 -560 29 -21 81 -25 113 -8 37
20 50 65 66 222 9 85 18 155 19 157 4 3 37 -48 141 -223 43 -71 87 -138 99
-147 23 -20 87 -24 117 -8 23 13 49 61 49 93 0 13 -82 159 -185 331 l-185 307
15 151 c18 167 15 199 -22 228 -31 24 -75 25 -198 5 -49 -8 -93 -15 -97 -15
-5 0 -8 15 -8 33 -1 17 -7 43 -14 56 -8 15 -127 89 -330 205 l-318 181 -26 64
c-45 106 -135 155 -217 117z m585 -615 c68 -39 118 -72 110 -74 -47 -14 -223
-38 -230 -30 -8 8 -90 207 -90 218 0 3 19 -5 43 -19 23 -14 98 -56 167 -95z"/>
<path d="M1344 3256 c-40 -18 -64 -52 -64 -93 0 -50 19 -80 64 -102 40 -18 44
-24 83 -128 78 -204 174 -446 184 -465 6 -11 24 -24 40 -30 35 -12 34 -17 -15
-91 -102 -156 -246 -402 -246 -421 0 -28 18 -46 47 -46 26 0 43 25 248 358
l118 193 125 -3 124 -3 163 -264 c89 -145 169 -267 176 -272 24 -15 48 -10 64
15 21 31 37 0 -200 381 -87 139 -86 135 -37 135 31 0 43 -5 56 -25 22 -34 85
-52 125 -36 42 18 62 44 68 90 4 28 1 48 -11 66 -34 51 -51 54 -377 61 -167 4
-315 7 -329 8 -23 1 -32 19 -112 226 -151 388 -161 412 -188 431 -36 26 -70
31 -106 15z"/>
    </g>
  </g>
    </g>
  </defs>

  <!-- Sign background -->
  <rect width="400" height="400" rx="20" fill="#714A07"/>

  <!-- Pictogram centered, takes most of the sign -->
  <g transform="translate(40 30) scale(0.30)">
    <use href="#pict-rest"/>
  </g>

  <!-- Divider -->
  <line x1="40" y1="330" x2="360" y2="330" stroke="#fff" stroke-width="2" opacity="0.6"/>

  <!-- Caption Russian + English -->
  <text x="200" y="362" fill="#fff" text-anchor="middle"
        font-family="'Myriad Pro Condensed','PT Sans Narrow','Arial Narrow',sans-serif"
        font-weight="700" font-size="26" font-stretch="condensed">МЕСТО ОТДЫХА</text>
  <text x="200" y="388" fill="#fff" opacity="0.85" text-anchor="middle"
        font-family="'Myriad Pro Condensed','PT Sans Narrow','Arial Narrow',sans-serif"
        font-weight="400" font-size="18" font-stretch="condensed">REST AREA</text>

  <!-- Draft label (very small) -->

  <!-- Construction grid (M = 25 mm). Hidden; unhide in AI to inspect ГОСТ 52290 modularity. -->
  <g id="construction-grid" display="none" stroke="#FFFFFF" stroke-width="0.3" opacity="0.4">
    <line x1="0" y1="0" x2="0" y2="400"/><line x1="25" y1="0" x2="25" y2="400"/><line x1="50" y1="0" x2="50" y2="400"/><line x1="75" y1="0" x2="75" y2="400"/><line x1="100" y1="0" x2="100" y2="400"/><line x1="125" y1="0" x2="125" y2="400"/><line x1="150" y1="0" x2="150" y2="400"/><line x1="175" y1="0" x2="175" y2="400"/><line x1="200" y1="0" x2="200" y2="400" stroke-width="0.6"/><line x1="225" y1="0" x2="225" y2="400"/><line x1="250" y1="0" x2="250" y2="400"/><line x1="275" y1="0" x2="275" y2="400"/><line x1="300" y1="0" x2="300" y2="400"/><line x1="325" y1="0" x2="325" y2="400"/><line x1="350" y1="0" x2="350" y2="400"/><line x1="375" y1="0" x2="375" y2="400"/><line x1="400" y1="0" x2="400" y2="400"/>
    <line x1="0" y1="0" x2="400" y2="0"/><line x1="0" y1="25" x2="400" y2="25"/><line x1="0" y1="50" x2="400" y2="50"/><line x1="0" y1="75" x2="400" y2="75"/><line x1="0" y1="100" x2="400" y2="100"/><line x1="0" y1="125" x2="400" y2="125"/><line x1="0" y1="150" x2="400" y2="150"/><line x1="0" y1="175" x2="400" y2="175"/><line x1="0" y1="200" x2="400" y2="200" stroke-width="0.6"/><line x1="0" y1="225" x2="400" y2="225"/><line x1="0" y1="250" x2="400" y2="250"/><line x1="0" y1="275" x2="400" y2="275"/><line x1="0" y1="300" x2="400" y2="300"/><line x1="0" y1="325" x2="400" y2="325"/><line x1="0" y1="350" x2="400" y2="350"/><line x1="0" y1="375" x2="400" y2="375"/><line x1="0" y1="400" x2="400" y2="400"/>
  </g>

</svg>
